HIERARCHY
ROOT Hips
{
    OFFSET 0.000000 0.000000 0.000000
    CHANNELS 6 Xposition Yposition Zposition Zrotation Xrotation Yrotation
    JOINT Spine
    {
        OFFSET -0.000000 14.517291 0.000000
        CHANNELS 3 Zrotation Xrotation Yrotation
        JOINT Spine1
        {
            OFFSET -0.000000 37.558300 0.000000
            CHANNELS 3 Zrotation Xrotation Yrotation
            JOINT Neck
            {
                OFFSET -0.000000 37.404057 3.400369
                CHANNELS 3 Zrotation Xrotation Yrotation
                JOINT Head
                {
                    OFFSET -0.000000 24.785618 -3.540803
                    CHANNELS 3 Zrotation Xrotation Yrotation
                    End Site
                    {
                        OFFSET -0.000000 35.408028 0.000000
                    }
                }
            }
            JOINT LeftShoulder
            {
                OFFSET 6.992933 33.973492 -0.192664
                CHANNELS 3 Zrotation Xrotation Yrotation
                JOINT LeftArm
                {
                    OFFSET 21.527611 0.000000 0.000000
                    CHANNELS 3 Zrotation Xrotation Yrotation
                    JOINT LeftForeArm
                    {
                        OFFSET 56.353916 0.000000 0.000000
                        CHANNELS 3 Zrotation Xrotation Yrotation
                        JOINT LeftHand
                        {
                            OFFSET 47.774071 0.000000 0.000000
                            CHANNELS 3 Zrotation Xrotation Yrotation
                            End Site
                            {
                                OFFSET 26.556021 0.000000 0.000000
                            }
                        }
                    }
                }
            }
            JOINT RightShoulder
            {
                OFFSET -7.065357 33.973492 -0.192664
                CHANNELS 3 Zrotation Xrotation Yrotation
                JOINT RightArm
                {
                    OFFSET -21.527611 0.000000 0.000000
                    CHANNELS 3 Zrotation Xrotation Yrotation
                    JOINT RightForeArm
                    {
                        OFFSET -56.353916 0.000000 0.000000
                        CHANNELS 3 Zrotation Xrotation Yrotation
                        JOINT RightHand
                        {
                            OFFSET -47.774071 0.000000 0.000000
                            CHANNELS 3 Zrotation Xrotation Yrotation
                            End Site
                            {
                                OFFSET -26.556021 0.000000 0.000000
                            }
                        }
                    }
                }
            }
        }
    }
    JOINT LeftUpLeg
    {
        OFFSET 17.704014 0.000000 0.000000
        CHANNELS 3 Zrotation Xrotation Yrotation
        JOINT LeftLeg
        {
            OFFSET -0.000000 -81.181816 0.000000
            CHANNELS 3 Zrotation Xrotation Yrotation
            JOINT LeftFoot
            {
                OFFSET -0.000000 -62.821102 0.000000
                CHANNELS 3 Zrotation Xrotation Yrotation
                JOINT LeftToeBase
                {
                    OFFSET -0.000000 -11.507608 26.556021
                    CHANNELS 3 Zrotation Xrotation Yrotation
                    End Site
                    {
                        OFFSET -0.000000 0.000000 7.081605
                    }
                }
            }
        }
    }
    JOINT RightUpLeg
    {
        OFFSET -17.704014 0.000000 0.000000
        CHANNELS 3 Zrotation Xrotation Yrotation
        JOINT RightLeg
        {
            OFFSET -0.000000 -81.181816 0.000000
            CHANNELS 3 Zrotation Xrotation Yrotation
            JOINT RightFoot
            {
                OFFSET -0.000000 -62.821102 0.000000
                CHANNELS 3 Zrotation Xrotation Yrotation
                JOINT RightToeBase
                {
                    OFFSET -0.000000 -11.507608 26.556021
                    CHANNELS 3 Zrotation Xrotation Yrotation
                    End Site
                    {
                        OFFSET -0.000000 0.000000 7.081605
                    }
                }
            }
        }
    }
}
MOTION
Frames:    10
Frame Time:    0.008333
25.974823    143.796280    51.685673    4.860215    3.170477    -63.754589    1.021909    1.631960    3.880415    2.097043    -2.504426    1.345763    14.067155    13.117273    18.207624    -14.385560    -1.949167    16.316669    13.082340    2.148849    -2.179647    -14.730158    1.278181    14.675639    8.379543    -15.620951    -104.671577    -7.127542    -4.289599    -9.872050    -12.222345    0.148501    -9.543633    36.583511    -28.782932    44.895775    13.685275    -22.274845    112.466515    23.159006    -34.323929    33.461536    39.211861    -23.237165    31.935581    -36.448421    46.869812    10.381209    2.259557    -17.178936    44.706734    0.000000    0.000000    0.000000    -32.032135    -15.004778    -17.564785    4.180666    35.195702    -6.048588    20.657394    -10.519892    8.312556    0.000000    0.000000    0.000000    
25.970993    143.788773    51.675819    4.851034    3.169887    -63.745796    1.009146    1.631644    3.852098    2.095866    -2.493316    1.336022    14.050008    13.098550    18.207140    -14.346047    -1.954384    16.319674    13.079703    2.129946    -2.204765    -14.722591    1.330464    14.690601    8.390617    -15.578860    -104.624382    -7.123338    -4.240481    -9.883080    -12.235373    0.136568    -9.531903    36.565693    -28.786856    44.870537    13.688801    -22.255167    112.486946    23.172142    -34.309414    33.488445    39.223072    -23.239559    31.935625    -36.465237    46.880390    10.393886    2.199692    -17.290987    44.816456    0.000000    0.000000    0.000000    -32.043049    -15.010103    -17.570438    4.208451    35.237782    -6.078924    20.638199    -10.516829    8.333933    0.000000    0.000000    0.000000    
25.966820    143.785675    51.661491    4.833242    3.174951    -63.735153    0.993869    1.631820    3.830509    2.114928    -2.471851    1.328750    14.043846    13.079131    18.202679    -14.327485    -1.952084    16.315769    13.072740    2.102299    -2.243242    -14.789135    1.332219    14.883024    7.829713    -15.635221    -103.952118    -7.535378    -4.791564    -14.822205    -12.243811    0.126612    -9.534141    36.552032    -28.815605    44.852089    13.704121    -22.207304    112.498657    23.186579    -34.280602    33.520683    39.241486    -23.237898    31.940344    -36.464462    46.888912    10.409407    2.199059    -17.272610    44.787830    0.000000    0.000000    0.000000    -32.037079    -15.008183    -17.577127    4.217202    35.268410    -6.081893    20.645197    -10.510887    8.332751    0.000000    0.000000    0.000000    
25.959789    143.784470    51.645626    4.812841    3.182473    -63.726200    0.983035    1.631305    3.810416    2.127421    -2.448809    1.321843    14.037503    13.062814    18.195885    -14.300694    -1.957971    16.310076    13.068539    2.090046    -2.258487    -14.785495    1.365290    14.867670    7.845014    -15.593208    -103.913574    -7.546930    -4.734199    -14.814499    -12.257468    0.110515    -9.538013    36.537224    -28.805130    44.821033    13.696110    -22.213633    112.520599    23.184507    -34.286839    33.503651    39.258068    -23.231661    31.943422    -36.446823    46.897095    10.384679    2.203618    -17.254616    44.785973    0.000000    0.000000    0.000000    -32.029358    -14.996133    -17.564011    4.258863    35.283314    -6.103081    20.630814    -10.511398    8.321311    0.000000    0.000000    0.000000    
25.957071    143.786530    51.628418    4.798911    3.192922    -63.711670    0.978352    1.624563    3.786825    2.130641    -2.425656    1.313587    14.040249    13.037793    18.187864    -14.281869    -1.940728    16.303299    13.074453    2.085262    -2.273428    -14.718161    1.397118    14.677045    8.257018    -15.416866    -104.625732    -7.151925    -4.253737    -9.743561    -12.255836    0.104335    -9.567084    36.533287    -28.790150    44.822227    13.677509    -22.216919    112.528496    23.158270    -34.276653    33.494518    39.273705    -23.238342    31.950521    -36.421181    46.906494    10.354396    2.189633    -17.245453    44.775127    0.000000    0.000000    0.000000    -32.016541    -14.990501    -17.578400    4.263603    35.300255    -6.097466    20.632814    -10.502178    8.315506    0.000000    0.000000    0.000000    
25.955799    143.792801    51.613628    4.791224    3.205007    -63.701450    0.981864    1.607655    3.767640    2.117330    -2.403290    1.306438    14.060390    13.024589    18.171406    -14.279309    -1.923090    16.286228    13.091241    2.093278    -2.283593    -14.747778    1.418353    14.645977    8.281974    -15.399656    -104.597633    -7.149598    -4.211387    -9.704241    -12.250651    0.110619    -9.582589    36.547588    -28.813948    44.808281    13.686852    -22.167936    112.543991    23.115250    -34.264881    33.475224    39.291729    -23.250647    32.068771    -36.325615    46.982540    10.251390    2.199327    -17.218016    44.758343    0.000000    0.000000    0.000000    -32.007694    -14.983652    -17.586744    4.282643    35.297783    -6.106320    20.630493    -10.482158    8.323389    0.000000    0.000000    0.000000    
25.950804    143.798874    51.593662    4.776726    3.222410    -63.696117    0.985806    1.597685    3.753062    2.114650    -2.389678    1.301236    14.055472    12.995338    18.158226    -14.228106    -1.882491    16.281542    13.091865    2.088294    -2.297349    -14.747247    1.441973    14.606994    8.200895    -15.321066    -104.628029    -7.015949    -4.250244    -9.562250    -12.240345    0.115274    -9.608035    36.543304    -28.794029    44.798298    13.676668    -22.178606    112.552948    23.114456    -34.261829    33.488113    39.317398    -23.245012    32.076569    -36.313469    46.977390    10.220538    2.276121    -17.084379    44.649616    0.000000    0.000000    0.000000    -31.986673    -14.974273    -17.590637    4.297432    35.292194    -6.116673    20.616449    -10.467263    8.347508    0.000000    0.000000    0.000000    
25.954485    143.808212    51.580048    4.771428    3.232341    -63.689472    0.988962    1.580859    3.740002    2.100430    -2.372817    1.296289    14.077378    12.994145    18.135899    -14.229283    -1.869606    16.258675    13.098900    2.093570    -2.312755    -14.754517    1.449829    14.578345    8.205053    -15.260828    -104.605110    -6.999019    -4.189470    -9.538651    -12.223013    0.120274    -9.637179    36.551701    -28.796236    44.793278    13.694603    -22.151556    112.563515    23.117149    -34.266159    33.475769    39.327179    -23.248793    32.079182    -36.295856    46.965443    10.210043    2.276581    -17.058147    44.647766    0.000000    0.000000    0.000000    -31.982382    -14.967730    -17.591986    4.334494    35.283585    -6.138210    20.588001    -10.456415    8.321927    0.000000    0.000000    0.000000    
25.958941    143.821213    51.566261    4.769353    3.242088    -63.683929    0.988212    1.562482    3.728147    2.090978    -2.361746    1.291871    14.088230    12.991231    18.115929    -14.210252    -1.848770    16.242456    13.101388    2.079546    -2.342528    -14.837320    1.446198    14.759517    7.700178    -15.321672    -103.887543    -7.446057    -4.662540    -14.739660    -12.250159    0.171436    -9.616925    36.659977    -28.922215    44.768356    13.743910    -22.002707    112.593704    23.061262    -34.227196    33.447643    39.331558    -23.254517    32.085403    -36.265110    46.952293    10.189934    2.273865    -17.027714    44.639217    0.000000    0.000000    0.000000    -31.976151    -14.960369    -17.621820    4.343990    35.264050    -6.150521    20.591223    -10.421391    8.333784    0.000000    0.000000    0.000000    
25.965279    143.833191    51.554764    4.768950    3.248031    -63.682976    0.980203    1.539883    3.720580    2.095251    -2.345664    1.289042    14.120625    12.987092    18.100624    -14.237812    -1.806986    16.225721    13.088943    2.062657    -2.382998    -14.881724    1.459660    14.980155    7.804544    -15.239370    -103.771858    -7.310203    -4.352505    -16.725933    -12.231408    0.170226    -9.620443    36.633812    -28.910610    44.727814    13.749697    -22.029486    112.613029    23.095989    -34.249187    33.485558    39.323715    -23.253191    31.982246    -36.318336    46.863388    10.300080    2.189176    -17.143539    44.747395    0.000000    0.000000    0.000000    -31.972498    -14.953743    -17.659904    4.323901    35.240585    -6.112092    20.596931    -10.389014    8.366284    0.000000    0.000000    0.000000    
